<svg xmlns="http://www.w3.org/2000/svg" viewBox="0 0 1024 1024" fill="none">
  <defs>
    <linearGradient id="petal" x1="258" y1="174" x2="784" y2="820" gradientUnits="userSpaceOnUse">
      <stop offset="0" stop-color="#5AAEFF"/>
      <stop offset=".5" stop-color="#1E63BE"/>
      <stop offset="1" stop-color="#0A2C63"/>
    </linearGradient>
    <radialGradient id="core" cx="0" cy="0" r="1" gradientTransform="translate(490 470) rotate(54.6) scale(186.418)" gradientUnits="userSpaceOnUse">
      <stop offset="0" stop-color="#FFF4B1"/>
      <stop offset=".6" stop-color="#EDBB49"/>
      <stop offset="1" stop-color="#BD7C1C"/>
    </radialGradient>
  </defs>
  <ellipse cx="512" cy="294" rx="138" ry="228" transform="rotate(45 512 512)" stroke="url(#petal)" stroke-width="88"/>
  <ellipse cx="512" cy="294" rx="138" ry="228" transform="rotate(135 512 512)" stroke="url(#petal)" stroke-width="88"/>
  <ellipse cx="512" cy="294" rx="138" ry="228" transform="rotate(225 512 512)" stroke="url(#petal)" stroke-width="88"/>
  <ellipse cx="512" cy="294" rx="138" ry="228" transform="rotate(315 512 512)" stroke="url(#petal)" stroke-width="88"/>
  <circle cx="512" cy="401" r="48" transform="rotate(45 512 512)" fill="#1850A1"/>
  <circle cx="512" cy="401" r="48" transform="rotate(135 512 512)" fill="#1850A1"/>
  <circle cx="512" cy="401" r="48" transform="rotate(225 512 512)" fill="#1850A1"/>
  <circle cx="512" cy="401" r="48" transform="rotate(315 512 512)" fill="#1850A1"/>
  <circle cx="512" cy="512" r="94" fill="url(#core)"/>
</svg>
