<svg xmlns="http://www.w3.org/2000/svg" viewBox="0 0 1024 1024" fill="none">
  <defs>
    <linearGradient id="petal" x1="214" y1="170" x2="810" y2="834" gradientUnits="userSpaceOnUse">
      <stop offset="0" stop-color="#8AD7FF"/>
      <stop offset="0.42" stop-color="#4C97E8"/>
      <stop offset="1" stop-color="#123F87"/>
    </linearGradient>
    <linearGradient id="petalHighlight" x1="320" y1="212" x2="742" y2="694" gradientUnits="userSpaceOnUse">
      <stop offset="0" stop-color="#F3FBFF" stop-opacity=".92"/>
      <stop offset=".45" stop-color="#B1E1FF" stop-opacity=".52"/>
      <stop offset="1" stop-color="#B1E1FF" stop-opacity="0"/>
    </linearGradient>
    <radialGradient id="core" cx="0" cy="0" r="1" gradientTransform="translate(488 472) rotate(53.8) scale(196.467)" gradientUnits="userSpaceOnUse">
      <stop offset="0" stop-color="#FFF7C4"/>
      <stop offset=".58" stop-color="#F2C45D"/>
      <stop offset="1" stop-color="#C78A25"/>
    </radialGradient>
  </defs>
  <ellipse cx="512" cy="294" rx="138" ry="228" transform="rotate(45 512 512)" stroke="url(#petal)" stroke-width="88"/>
  <ellipse cx="512" cy="294" rx="138" ry="228" transform="rotate(135 512 512)" stroke="url(#petal)" stroke-width="88"/>
  <ellipse cx="512" cy="294" rx="138" ry="228" transform="rotate(225 512 512)" stroke="url(#petal)" stroke-width="88"/>
  <ellipse cx="512" cy="294" rx="138" ry="228" transform="rotate(315 512 512)" stroke="url(#petal)" stroke-width="88"/>
  <ellipse cx="512" cy="294" rx="138" ry="228" transform="rotate(45 512 512)" stroke="url(#petalHighlight)" stroke-linecap="round" stroke-width="38"/>
  <ellipse cx="512" cy="294" rx="138" ry="228" transform="rotate(135 512 512)" stroke="url(#petalHighlight)" stroke-linecap="round" stroke-width="38"/>
  <ellipse cx="512" cy="294" rx="138" ry="228" transform="rotate(225 512 512)" stroke="url(#petalHighlight)" stroke-linecap="round" stroke-width="38"/>
  <ellipse cx="512" cy="294" rx="138" ry="228" transform="rotate(315 512 512)" stroke="url(#petalHighlight)" stroke-linecap="round" stroke-width="38"/>
  <circle cx="512" cy="401" r="48" transform="rotate(45 512 512)" fill="url(#petal)"/>
  <circle cx="512" cy="401" r="48" transform="rotate(135 512 512)" fill="url(#petal)"/>
  <circle cx="512" cy="401" r="48" transform="rotate(225 512 512)" fill="url(#petal)"/>
  <circle cx="512" cy="401" r="48" transform="rotate(315 512 512)" fill="url(#petal)"/>
  <circle cx="512" cy="512" r="94" fill="url(#core)"/>
</svg>
