<svg xmlns="http://www.w3.org/2000/svg" viewBox="0 0 1024 1024" fill="none">
  <defs>
    <linearGradient id="petal" x1="236" y1="170" x2="798" y2="840" gradientUnits="userSpaceOnUse">
      <stop offset="0" stop-color="#F3FBFF"/>
      <stop offset=".5" stop-color="#95D6FF"/>
      <stop offset="1" stop-color="#55A7F2"/>
    </linearGradient>
    <radialGradient id="core" cx="0" cy="0" r="1" gradientTransform="translate(492 472) rotate(54.6) scale(182.435)" gradientUnits="userSpaceOnUse">
      <stop offset="0" stop-color="#FFF9D9"/>
      <stop offset=".62" stop-color="#F4CB67"/>
      <stop offset="1" stop-color="#D8952A"/>
    </radialGradient>
  </defs>
  <ellipse cx="512" cy="294" rx="138" ry="228" transform="rotate(45 512 512)" stroke="url(#petal)" stroke-width="92"/>
  <ellipse cx="512" cy="294" rx="138" ry="228" transform="rotate(135 512 512)" stroke="url(#petal)" stroke-width="92"/>
  <ellipse cx="512" cy="294" rx="138" ry="228" transform="rotate(225 512 512)" stroke="url(#petal)" stroke-width="92"/>
  <ellipse cx="512" cy="294" rx="138" ry="228" transform="rotate(315 512 512)" stroke="url(#petal)" stroke-width="92"/>
  <circle cx="512" cy="401" r="50" transform="rotate(45 512 512)" fill="#D6F1FF"/>
  <circle cx="512" cy="401" r="50" transform="rotate(135 512 512)" fill="#D6F1FF"/>
  <circle cx="512" cy="401" r="50" transform="rotate(225 512 512)" fill="#D6F1FF"/>
  <circle cx="512" cy="401" r="50" transform="rotate(315 512 512)" fill="#D6F1FF"/>
  <circle cx="512" cy="512" r="96" fill="url(#core)"/>
</svg>
